HIERARCHY
ROOT pelvis
{
  OFFSET 0 100 0
  CHANNELS 6 Xposition Yposition Zposition Zrotation Xrotation Yrotation
  JOINT pelvis_right_femur
  {
    OFFSET -10.78128 -3.44521 -0.5502486
    CHANNELS 3 Zrotation Xrotation Yrotation
    JOINT right_femur_tibia
    {
      OFFSET -0.8047443 -44.0398 -0.1307829
      CHANNELS 3 Zrotation Xrotation Yrotation
      JOINT right_tibia_foot
      {
        OFFSET 3.006224 -47.83518 -5
        CHANNELS 3 Zrotation Xrotation Yrotation
        End Site
        {
          OFFSET 0 -5 15
        }
      }
    }
  }
  JOINT pelvis_left_femur
  {
    OFFSET 10.78128 -3.44521 -0.5502486
    CHANNELS 3 Zrotation Xrotation Yrotation
    JOINT left_femur_tibia
    {
      OFFSET 0.8047443 -44.0398 -0.1307829
      CHANNELS 3 Zrotation Xrotation Yrotation
      JOINT left_tibia_foot
      {
        OFFSET -4.370144 -48.10324 -4.275266
        CHANNELS 3 Zrotation Xrotation Yrotation
        End Site
        {
          OFFSET 0 -5 15
        }
      }
    }
  }
  JOINT pelvis_spine1
  {
    OFFSET 0 6.468898 -3.129235
    CHANNELS 3 Zrotation Xrotation Yrotation
    JOINT spine1
    {
      OFFSET 0 23.15396 4.99043
      CHANNELS 3 Zrotation Xrotation Yrotation
      JOINT spine2
      {
        OFFSET 0 20.79997 -5.064912
        CHANNELS 3 Zrotation Xrotation Yrotation
        JOINT neck
        {
          OFFSET 0 14.38658 9.616178
          CHANNELS 3 Zrotation Xrotation Yrotation
          End Site
          {
            OFFSET 0 20 0
          }
        }
      }
      JOINT right_manubrium
      {
        OFFSET -5.722621 16.35077 3.967754
        CHANNELS 3 Zrotation Xrotation Yrotation
        JOINT right_clavicle
        {
          OFFSET -13.16364 1.694482 -4.693211
          CHANNELS 3 Zrotation Xrotation Yrotation
          JOINT right_humerus
          {
            OFFSET -28.5034 -0.3100689 -2.792744
            CHANNELS 3 Zrotation Xrotation Yrotation
            JOINT right_radius
            {
              OFFSET -25.15693 0.02248979 -1.271978
              CHANNELS 3 Zrotation Xrotation Yrotation
              End Site
              {
                OFFSET -15 0 0
              }
            }
          }
        }
      }
      JOINT left_manubrium
      {
        OFFSET 5.722621 16.35077 3.967754
        CHANNELS 3 Zrotation Xrotation Yrotation
        JOINT left_clavicle
        {
          OFFSET 13.16364 1.694482 -4.693211
          CHANNELS 3 Zrotation Xrotation Yrotation
          JOINT left_humerus
          {
            OFFSET 29.39168 -1.063119 -2.237045
            CHANNELS 3 Zrotation Xrotation Yrotation
            JOINT left_radius
            {
              OFFSET 24.59957 -0.9528479 0.9047498
              CHANNELS 3 Zrotation Xrotation Yrotation
              End Site
              {
                OFFSET 15 -0 -0
              }
            }
          }
        }
      }
    }
  }
}
MOTION
Frames: 13
Frame Time: 0.0416666666667
109.047 100.5108 3138.753 0.847403 -5.833885 -6.432691 0.04972841 19.03774 4.124523 -0 31.16456 -0 -0.08796618 -4.60917 -0.9161054 -2.373495 -21.89203 -6.240374 -0 18.96562 -0 -4.06265 -7.770836 19.75572 1.344643 2.273449 7.861102 1.663057 11.7575 -7.437895 2.614526 22.1752 -1.863785 -5.803966 -26.8662 6.197035 -15.19879 -32.12544 8.298424 103.1314 28.15574 -11.40631 -0 0 21.5442 -12.73351 2.549852 5.965921 -4.420838 -15.63335 -2.736827 -85.28154 13.03545 33.1088 0 0 -13.1125 5.073348 9.044181 3.166639
109.4622 101.0483 3146.137 1.492623 -6.716563 -6.044512 -0.8830923 16.64013 4.064429 -0 40.22467 -0 -0.1160002 1.144782 -1.742597 -4.178257 -18.09857 -7.393609 -0 21.32201 -0 -3.226083 -8.737543 19.53924 1.30344 2.716514 8.031313 1.647296 11.29939 -7.324765 2.720537 22.35805 -2.117902 -6.232476 -27.29899 6.282837 -16.3574 -32.20041 7.737502 104.4806 29.28528 -11.487 -0 0 20.88477 -11.70097 1.22958 5.661402 -5.149108 -15.11114 -2.442995 -84.58027 13.24296 33.24239 0 0 -14.4248 4.302217 8.096531 4.290686
109.8595 102.1674 3153.116 1.774537 -7.338666 -5.264301 -0.9551649 11.63379 3.721691 -0 48.86225 -0 -0.4437973 5.346141 -2.795671 -5.303355 -13.18873 -8.061179 -0 22.18443 -0 -2.011264 -9.79786 18.8978 1.261964 3.159096 8.158882 1.615916 10.76535 -7.230013 2.818034 22.64357 -2.235792 -6.555791 -27.7679 6.432969 -17.64611 -31.93218 7.197393 106.387 30.38459 -12.26385 -0 0 19.46019 -10.6804 -0.4768441 5.181598 -5.77506 -14.76296 -2.202616 -83.66105 13.43796 32.8673 0 0 -16.5598 3.569315 7.083937 5.362041
110.2428 103.599 3159.479 1.553054 -7.578827 -4.224882 -0.3155399 4.685685 3.287136 -0 54.8449 -0 -0.997942 6.981348 -3.846433 -5.65804 -7.83354 -8.319876 -0 21.07575 -0 -0.8350821 -10.93377 18.07797 1.206333 3.608343 8.219191 1.60176 10.11567 -7.170462 2.896326 23.02702 -2.214624 -6.773446 -28.30141 6.642789 -19.02274 -31.32789 6.712359 108.7628 31.44031 -13.67319 -0 0 17.35756 -9.709771 -2.556291 4.547272 -6.280979 -14.55025 -1.964098 -82.54372 13.59459 31.98115 0 0 -19.31813 2.907499 6.054942 6.259852
110.6108 104.8988 3165.272 1.03689 -7.676849 -3.090643 0.4378671 -2.750828 2.89001 -0 56.10089 -0 -1.72458 6.547216 -4.762125 -5.495319 -2.692417 -8.387107 -0 18.74068 -0 -0.1149818 -12.24115 17.39011 1.12425 4.061651 8.199478 1.632292 9.330606 -7.154777 2.944906 23.48798 -2.066808 -6.891756 -28.89958 6.895059 -20.41746 -30.43292 6.314882 111.4394 32.44141 -15.56351 -0 0 14.7509 -8.830703 -4.919978 3.812012 -6.658495 -14.42845 -1.678939 -81.27874 13.68211 30.64524 0 0 -22.44315 2.338481 5.067659 6.89332
110.9389 105.6547 3170.714 0.5820256 -7.75986 -2.017189 0.7922852 -9.557257 2.346848 -0 51.8622 -0 -2.50412 5.149767 -5.491711 -5.169967 1.992272 -8.422664 -0 16.23614 -0 -0.1661696 -13.95599 16.76923 1.012279 4.497972 8.102841 1.718071 8.434435 -7.181853 2.956316 23.99002 -1.8156 -6.916828 -29.52427 7.16367 -21.73334 -29.32782 6.032896 114.1899 33.35922 -17.73112 -0 0 11.87771 -8.091578 -7.395277 3.048362 -6.90032 -14.36903 -1.328666 -79.95478 13.6742 28.98332 0 0 -25.65959 1.876973 4.188569 7.220003
111.1907 105.6694 3176.05 0.3876764 -7.631219 -1.114489 0.6768984 -15.39683 1.473312 -0 43.18143 -0 -3.10019 3.42688 -6.038731 -4.917471 6.275605 -8.483216 -0 14.18666 -0 -1.069907 -16.20238 15.89699 0.8835353 4.866945 7.948243 1.846461 7.510019 -7.245635 2.926058 24.47596 -1.483569 -6.844607 -30.0962 7.418456 -22.84785 -28.11329 5.888717 116.7565 34.11794 -19.97354 -0 0 8.996825 -7.550327 -9.723506 2.333605 -6.986282 -14.39003 -0.9501816 -78.68498 13.55507 27.14766 0 0 -28.76807 1.532331 3.482565 7.26608
111.3382 104.9887 3181.477 0.4745279 -7.08662 -0.4194256 0.3327636 -20.25075 0.4050477 -0 32.36313 -0 -3.280307 1.708255 -6.462301 -4.839946 10.18544 -8.51894 -0 12.9227 -0 -2.414831 -18.66407 14.74634 0.7681331 5.090181 7.764966 1.986782 6.687451 -7.342954 2.850915 24.86703 -1.084512 -6.658921 -30.50896 7.629173 -23.62404 -26.89373 5.896395 118.8689 34.59128 -22.11844 -0 0 6.354062 -7.267936 -11.58308 1.740201 -6.878011 -14.56472 -0.6347471 -77.57893 13.3201 25.27681 0 0 -31.71088 1.311367 2.999645 7.122126
111.3666 103.8267 3187.146 0.7423182 -6.174921 0.09241429 0.09712925 -24.06553 -0.5038849 -0 22.02568 -0 -3.061031 0.4750196 -6.779012 -4.942844 13.58861 -8.423087 -0 12.79006 -0 -3.44976 -20.66483 13.71883 0.7024969 5.085613 7.582735 2.103729 6.10535 -7.475695 2.730235 25.07996 -0.6264844 -6.342863 -30.66337 7.77055 -23.94191 -25.7645 6.055391 120.2793 34.64425 -24.02628 -0 0 4.156256 -7.289736 -12.66367 1.328591 -6.534845 -14.98967 -0.4932445 -76.71816 12.97827 23.47341 0 0 -34.53727 1.221678 2.766125 6.906793
111.2727 102.4717 3193.159 0.9897762 -5.153224 0.480187 0.27823 -26.67654 -0.9364802 -0 14.2493 -0 -2.738317 0.09745732 -6.928289 -5.120934 16.24023 -8.184553 -0 14.19577 -0 -3.834533 -21.59919 13.1598 0.7125769 4.805952 7.420782 2.171285 5.862079 -7.644552 2.570718 25.05997 -0.1218338 -5.89593 -30.50976 7.829801 -23.7411 -24.80101 6.34533 120.8294 34.19321 -25.5936 -0 0 2.543693 -7.624936 -12.77512 1.139214 -5.944578 -15.72817 -0.6064624 -76.14679 12.56124 21.80747 0 0 -37.28688 1.27042 2.783943 6.719427
111.0609 101.2151 3199.564 1.02298 -4.31898 0.8014592 1.024314 -27.812 -0.7312673 -0 9.97813 -0 -2.606171 0.3841874 -6.920248 -5.186174 17.94986 -7.922282 -0 17.50441 -0 -4.046735 -21.20856 12.95233 0.80078 4.268435 7.281295 2.1807 5.98158 -7.840539 2.389765 24.81047 0.4049865 -5.344759 -30.07446 7.812956 -23.05053 -24.05035 6.727978 120.5157 33.24696 -26.76322 -0 0 1.567178 -8.238196 -11.93224 1.182156 -5.14718 -16.76292 -0.9885735 -75.87603 12.12991 20.33317 0 0 -39.87474 1.45936 3.036699 6.604423
110.7378 100.3156 3206.348 0.7757651 -3.888868 1.05555 2.26151 -27.22313 0.1332085 -0 9.05675 -0 -2.744597 0.7251222 -6.919305 -4.975539 18.63374 -7.725943 -0 22.94336 -0 -4.750326 -19.49382 12.78669 0.9456224 3.552768 7.153728 2.138015 6.415972 -8.042242 2.212288 24.39569 0.9177467 -4.73907 -29.44618 7.742552 -21.98013 -23.53083 7.158142 119.4892 31.90733 -27.5234 -0 0 1.19117 -9.060772 -10.34714 1.431441 -4.230173 -17.99007 -1.58678 -75.89662 11.76314 19.10701 0 0 -42.06568 1.782339 3.498542 6.543093
110.3161 99.97446 3213.422 0.3262744 -3.975182 1.147566 3.730742 -24.86641 1.567426 -0 10.67443 -0 -3.061842 0.52021 -7.144694 -4.456293 18.17686 -7.571521 -0 30.48663 -0 -6.001453 -16.59525 12.64359 1.114582 2.766032 7.028427 2.053354 7.083707 -8.220774 2.062346 23.91142 1.375713 -4.13526 -28.72697 7.645106 -20.67417 -23.24167 7.597992 117.9804 30.33037 -27.88809 -0 0 1.331515 -10.01539 -8.323132 1.834449 -3.297021 -19.25958 -2.315458 -76.19347 11.5298 18.19916 0 0 -43.55415 2.228268 4.14226 6.475004
